<svg xmlns="http://www.w3.org/2000/svg" viewBox="0 0 900 440" role="img" aria-labelledby="re-t re-d" font-family="var(--serif)">
<title id="re-t">Almost all of it went abroad</title><desc id="re-d">Florida hard rock phosphate in long tons. Exported and domestic shipments: 1909 496,645 and 17,456; 1910 461,353 and 18,745; 1911 462,072 and 16,723; 1912 470,354 and 15,425; 1913 476,898 and 12,896; 1914 303,172 and 6,517; 1915 43,314 and 6,816; 1916 28,045 and 19,042; 1917 12,403 and 6,205 (1917 including soft rock). No figure for 1918 in the reports examined. Marketed, not divided between export and home: 1919 285,467; 1920 400,249.</desc>
<text x="16" y="28" font-size="17" font-weight="bold" fill="var(--ink)">Almost all of it went abroad</text>
<text x="16" y="48" font-size="13" fill="var(--ink2)">Florida hard rock phosphate, long tons, after the Florida Geological Survey. Each bar links to its passage.</text>
<rect x="16" y="60" width="14" height="12" fill="var(--rock)"/><text x="36" y="71" font-size="12.5" fill="var(--ink)">exported</text><rect x="110" y="60" width="14" height="12" fill="var(--crop)"/><text x="130" y="71" font-size="12.5" fill="var(--ink)">shipped for use at home</text><rect x="300" y="60" width="14" height="12" fill="none" stroke="var(--rock)" stroke-dasharray="3 2"/><text x="320" y="71" font-size="12.5" fill="var(--ink)">marketed, not divided (1919–1920)</text>
<line x1="70" y1="360" x2="880" y2="360" stroke="var(--line)"/><text x="64" y="364" font-size="11" text-anchor="end" fill="var(--ink2)">0</text>
<line x1="70" y1="311" x2="880" y2="311" stroke="var(--line)"/><text x="64" y="315" font-size="11" text-anchor="end" fill="var(--ink2)">100,000</text>
<line x1="70" y1="262" x2="880" y2="262" stroke="var(--line)"/><text x="64" y="266" font-size="11" text-anchor="end" fill="var(--ink2)">200,000</text>
<line x1="70" y1="213" x2="880" y2="213" stroke="var(--line)"/><text x="64" y="217" font-size="11" text-anchor="end" fill="var(--ink2)">300,000</text>
<line x1="70" y1="164" x2="880" y2="164" stroke="var(--line)"/><text x="64" y="168" font-size="11" text-anchor="end" fill="var(--ink2)">400,000</text>
<line x1="70" y1="115" x2="880" y2="115" stroke="var(--line)"/><text x="64" y="119" font-size="11" text-anchor="end" fill="var(--ink2)">500,000</text>
<a href="#/text/rock/war/16"><rect x="84" y="116" width="46" height="244" fill="var(--rock)"/><rect x="84" y="108" width="46" height="9" fill="var(--crop)"/><text x="107" y="102" font-size="11" text-anchor="middle" fill="var(--ink)">514,101</text></a>
<text x="107" y="378" font-size="12" text-anchor="middle" fill="var(--ink)">1909</text>
<a href="#/text/rock/war/16"><rect x="148" y="134" width="46" height="226" fill="var(--rock)"/><rect x="148" y="124" width="46" height="9" fill="var(--crop)"/><text x="171" y="118" font-size="11" text-anchor="middle" fill="var(--ink)">480,098</text></a>
<text x="171" y="378" font-size="12" text-anchor="middle" fill="var(--ink)">1910</text>
<a href="#/text/rock/war/16"><rect x="212" y="133" width="46" height="227" fill="var(--rock)"/><rect x="212" y="125" width="46" height="8" fill="var(--crop)"/><text x="235" y="119" font-size="11" text-anchor="middle" fill="var(--ink)">478,795</text></a>
<text x="235" y="378" font-size="12" text-anchor="middle" fill="var(--ink)">1911</text>
<a href="#/text/rock/war/16"><rect x="276" y="129" width="46" height="231" fill="var(--rock)"/><rect x="276" y="122" width="46" height="8" fill="var(--crop)"/><text x="299" y="116" font-size="11" text-anchor="middle" fill="var(--ink)">485,779</text></a>
<text x="299" y="378" font-size="12" text-anchor="middle" fill="var(--ink)">1912</text>
<a href="#/text/rock/war/17"><rect x="340" y="126" width="46" height="234" fill="var(--rock)"/><rect x="340" y="120" width="46" height="6" fill="var(--crop)"/><text x="363" y="114" font-size="11" text-anchor="middle" fill="var(--ink)">489,794</text></a>
<text x="363" y="378" font-size="12" text-anchor="middle" fill="var(--ink)">1913</text>
<a href="#/text/rock/war/17"><rect x="404" y="211" width="46" height="149" fill="var(--rock)"/><rect x="404" y="208" width="46" height="3" fill="var(--crop)"/><text x="427" y="202" font-size="11" text-anchor="middle" fill="var(--ink)">309,689</text></a>
<text x="427" y="378" font-size="12" text-anchor="middle" fill="var(--ink)">1914</text>
<a href="#/text/rock/war/17"><rect x="468" y="339" width="46" height="21" fill="var(--rock)"/><rect x="468" y="335" width="46" height="3" fill="var(--crop)"/><text x="491" y="329" font-size="11" text-anchor="middle" fill="var(--ink)">50,130</text></a>
<text x="491" y="378" font-size="12" text-anchor="middle" fill="var(--ink)">1915</text>
<a href="#/text/rock/war/17"><rect x="532" y="346" width="46" height="14" fill="var(--rock)"/><rect x="532" y="337" width="46" height="9" fill="var(--crop)"/><text x="555" y="331" font-size="11" text-anchor="middle" fill="var(--ink)">47,087</text></a>
<text x="555" y="378" font-size="12" text-anchor="middle" fill="var(--ink)">1916</text>
<a href="#/text/rock/war/17"><rect x="596" y="354" width="46" height="6" fill="var(--rock)"/><rect x="596" y="351" width="46" height="3" fill="var(--crop)"/><text x="619" y="345" font-size="11" text-anchor="middle" fill="var(--ink)">18,608</text></a>
<text x="619" y="378" font-size="12" text-anchor="middle" fill="var(--ink)">1917</text>
<text x="683" y="336" font-size="11" text-anchor="middle" fill="var(--ink2)">no</text><text x="683" y="350" font-size="11" text-anchor="middle" fill="var(--ink2)">figure</text>
<text x="683" y="378" font-size="12" text-anchor="middle" fill="var(--ink)">1918</text>
<a href="#/text/rock/war/18"><rect x="724" y="220" width="46" height="140" fill="none" stroke="var(--rock)" stroke-width="1.5" stroke-dasharray="4 3"/><text x="747" y="214" font-size="11" text-anchor="middle" fill="var(--ink)">285,467</text></a>
<text x="747" y="378" font-size="12" text-anchor="middle" fill="var(--ink)">1919</text>
<a href="#/text/rock/war/18"><rect x="788" y="164" width="46" height="196" fill="none" stroke="var(--rock)" stroke-width="1.5" stroke-dasharray="4 3"/><text x="811" y="158" font-size="11" text-anchor="middle" fill="var(--ink)">400,249</text></a>
<text x="811" y="378" font-size="12" text-anchor="middle" fill="var(--ink)">1920</text>
<line x1="432" y1="84" x2="432" y2="360" stroke="var(--colour)" stroke-dasharray="5 4"/><a href="#/text/rock/war/15"><text x="438" y="94" font-size="12.5" fill="var(--colour)" text-decoration="underline">August 1914: “the interruption of European shipment”</text></a>
<text x="16" y="406" font-size="12" fill="var(--ink2)">1909–1913: 96 to 97 of every 100 tons shipped went abroad. 1917 includes some soft rock. 1919 and 1920: quantities marketed, not divided.</text>
<text x="16" y="424" font-size="12" fill="var(--ink2)">Sources: Seventh Annual Report (1915), p. 22; Tenth and Eleventh Annual Reports (1918), p. 106; Fourteenth Annual Report (1922), p. 29.</text>
</svg>